<svg style="display:none;"><symbol viewBox="0 0 70 70" id="arrow-down-icon"><title>arrow-down-icon</title> <g id="arrow-down-icon-XMLID_1_"> <path id="arrow-down-icon-XMLID_3_" fill="#FFFFFF" d="M35,48.5c-0.5,0-1-0.2-1.4-0.6l-23-23c-0.8-0.8-0.8-2,0-2.8c0.8-0.8,2-0.8,2.8,0L35,43.7
		l21.6-21.6c0.8-0.8,2-0.8,2.8,0c0.8,0.8,0.8,2,0,2.8l-23,23C36,48.3,35.5,48.5,35,48.5z"/> </g> </symbol><symbol viewBox="0 0 100 100" id="arrow"><title>arrow</title> <polyline id="arrow-XMLID_2_" fill="none" stroke="#1D1D1B" stroke-width="6" stroke-miterlimit="10" points="30.7,87 68.2,49.5 30.7,12 
	"/> <path id="arrow-XMLID_1_" fill="none" stroke="#1D1D1B" stroke-width="6" stroke-miterlimit="10" d="M68.2,49.5"/> </symbol><symbol viewBox="30 -15 180 180" id="chilled-icon-green"><title>chilled-icon-green</title> <path id="chilled-icon-green-chilled-icon-green" fill="#82c7ba" d="M194.4,114.8l-27.9-16l23.6-9.4c1.7-0.7,2.6-2.7,1.9-4.4c-0.7-1.7-2.7-2.6-4.4-1.9
	L159,94.5l-32.8-18.8l37.1-21.3l27.2,11.1c0.4,0.2,0.9,0.3,1.3,0.3c1.3,0,2.6-0.8,3.1-2.1c0.7-1.7-0.1-3.7-1.8-4.4l-22.4-9.1
	l23.6-13.6c1.6-0.9,2.2-3,1.2-4.6c-0.9-1.6-3-2.2-4.6-1.2l-24.2,13.9l3.2-25.1c0.2-1.8-1.1-3.5-2.9-3.8c-1.8-0.2-3.5,1.1-3.8,2.9
	l-3.8,30.2l-36.5,21V24.3L146.6,6c1.5-1.1,1.8-3.3,0.6-4.7c-1.1-1.5-3.3-1.8-4.7-0.6l-19.6,15V-8.6c0-1.9-1.5-3.4-3.4-3.4
	s-3.4,1.5-3.4,3.4v24.4L96.5,0.7c-1.5-1.1-3.6-0.9-4.7,0.6c-1.1,1.5-0.9,3.6,0.6,4.7l23.8,18.2v45.7L78.8,48.5l-3.6-29.8
	c-0.2-1.9-1.9-3.2-3.8-2.9c-1.9,0.2-3.2,1.9-2.9,3.8l3,24.8L48,30.8c-1.6-0.9-3.7-0.4-4.6,1.3c-0.9,1.6-0.4,3.7,1.3,4.6L67.8,50
	L45,59.1c-1.7,0.7-2.6,2.7-1.9,4.4c0.5,1.3,1.8,2.1,3.1,2.1c0.4,0,0.8-0.1,1.3-0.2l27.7-11.1l37.5,21.5l-36.4,21L48.4,85.4
	c-1.7-0.7-3.7,0.1-4.4,1.9c-0.7,1.7,0.1,3.7,1.9,4.4l23,9.4L44.7,115c-1.6,0.9-2.2,3-1.2,4.6c0.6,1.1,1.8,1.7,2.9,1.7
	c0.6,0,1.2-0.1,1.7-0.5l24.2-13.9l-3.1,24.5c-0.2,1.8,1.1,3.5,2.9,3.8c0.1,0,0.3,0,0.4,0c1.7,0,3.1-1.2,3.3-3l3.7-29.6l36.6-21v41.7
	l-23.8,18.2c-1.5,1.1-1.8,3.3-0.6,4.7c0.7,0.9,1.7,1.3,2.7,1.3c0.7,0,1.4-0.2,2.1-0.7l19.6-15.1V160c0,1.9,1.5,3.4,3.4,3.4
	s3.4-1.5,3.4-3.4v-28.3l19.6,15.1c0.6,0.5,1.3,0.7,2.1,0.7c1,0,2-0.5,2.7-1.3c1.1-1.5,0.9-3.6-0.6-4.7L123,123.3V81.6l33.5,19.2
	l3.5,29c0.2,1.7,1.7,3,3.3,3c0.1,0,0.3,0,0.4,0c1.8-0.2,3.2-1.9,3-3.8l-2.9-24l27.4,15.7c0.5,0.3,1.1,0.4,1.7,0.4
	c1.2,0,2.3-0.6,2.9-1.7C196.5,117.8,196,115.7,194.4,114.8z"/> </symbol><symbol viewBox="0 0 180 180" id="chilled-icon"><title>chilled-icon</title> <path id="chilled-icon-chilled-icon" class="chilled-icon" fill="#CECECE" d="M164.4,129.8l-27.9-16l23.6-9.4c1.7-0.7,2.6-2.7,1.9-4.4c-0.7-1.7-2.7-2.6-4.4-1.9L129,109.5
	L96.2,90.7l37.1-21.3l27.2,11.1c0.4,0.2,0.9,0.3,1.3,0.3c1.3,0,2.6-0.8,3.1-2.1c0.7-1.7-0.1-3.7-1.8-4.4l-22.4-9.1l23.6-13.6
	c1.6-0.9,2.2-3,1.2-4.6c-0.9-1.6-3-2.2-4.6-1.2l-24.2,13.9l3.2-25.1c0.2-1.8-1.1-3.5-2.9-3.8c-1.8-0.2-3.5,1.1-3.8,2.9l-3.8,30.2
	l-36.5,21V39.3L116.6,21c1.5-1.1,1.8-3.3,0.6-4.7c-1.1-1.5-3.3-1.8-4.7-0.6L92.9,30.7V6.4c0-1.9-1.5-3.4-3.4-3.4
	c-1.9,0-3.4,1.5-3.4,3.4v24.4L66.5,15.7c-1.5-1.1-3.6-0.9-4.7,0.6c-1.1,1.5-0.9,3.6,0.6,4.7l23.8,18.2v45.7L48.8,63.5l-3.6-29.8
	c-0.2-1.9-1.9-3.2-3.8-2.9c-1.9,0.2-3.2,1.9-2.9,3.8l3,24.8L18,45.8c-1.6-0.9-3.7-0.4-4.6,1.3c-0.9,1.6-0.4,3.7,1.3,4.6L37.8,65
	L15,74.1c-1.7,0.7-2.6,2.7-1.9,4.4c0.5,1.3,1.8,2.1,3.1,2.1c0.4,0,0.8-0.1,1.3-0.2l27.7-11.1l37.5,21.5l-36.4,21l-27.9-11.4
	c-1.7-0.7-3.7,0.1-4.4,1.9c-0.7,1.7,0.1,3.7,1.9,4.4l23,9.4l-24.2,13.9c-1.6,0.9-2.2,3-1.2,4.6c0.6,1.1,1.8,1.7,2.9,1.7
	c0.6,0,1.2-0.1,1.7-0.5l24.2-13.9l-3.1,24.5c-0.2,1.8,1.1,3.5,2.9,3.8c0.1,0,0.3,0,0.4,0c1.7,0,3.1-1.2,3.3-3l3.7-29.6l36.6-21v41.7
	l-23.8,18.2c-1.5,1.1-1.8,3.3-0.6,4.7c0.7,0.9,1.7,1.3,2.7,1.3c0.7,0,1.4-0.2,2.1-0.7l19.6-15.1v28.3c0,1.9,1.5,3.4,3.4,3.4
	c1.9,0,3.4-1.5,3.4-3.4v-28.3l19.6,15.1c0.6,0.5,1.3,0.7,2.1,0.7c1,0,2-0.5,2.7-1.3c1.1-1.5,0.9-3.6-0.6-4.7l-23.7-18.2V96.6
	l33.5,19.2l3.5,29c0.2,1.7,1.7,3,3.3,3c0.1,0,0.3,0,0.4,0c1.8-0.2,3.2-1.9,3-3.8l-2.9-24l27.4,15.7c0.5,0.3,1.1,0.4,1.7,0.4
	c1.2,0,2.3-0.6,2.9-1.7C166.5,132.8,166,130.7,164.4,129.8z"/> </symbol><symbol viewBox="30 -15 180 180" id="cups-icon"><title>cups-icon</title> <path fill="#82C7BA" d="M73.4,35.8c-1.8,0-3.3,1.5-3.3,3.3V103c0,1.8,1.5,3.3,3.3,3.3c1.8,0,3.3-1.5,3.3-3.3V39.2
	C76.7,37.3,75.2,35.8,73.4,35.8z"/> <path fill="#82C7BA" d="M190.6,68.8c0-20.8-16-37.9-36.5-39.6V21c0-1.8-1.5-3.3-3.3-3.3H55.2c-1.8,0-3.3,1.5-3.3,3.3v91.2
	c0,11.9,9.6,21.5,21.5,21.5h59.3c11.9,0,21.5-9.6,21.5-21.5v-3.7C174.6,106.7,190.6,89.6,190.6,68.8z M154.2,49.6
	c9.1,1.6,16.1,9.6,16.1,19.2c0,9.6-7,17.6-16.1,19.2V49.6z M147.5,112.1c0,8.2-6.6,14.9-14.9,14.9H73.4c-8.2,0-14.9-6.6-14.9-14.9
	V24.3h89V112.1z M154.2,101.7v-7.1C167,93,176.9,82,176.9,68.7s-10-24.3-22.8-25.9v-7.1c16.7,1.7,29.8,15.8,29.8,33
	S170.9,100.1,154.2,101.7z"/> </symbol><symbol viewBox="30 -15 180 180" id="energy-icon"><title>energy-icon</title> <g> <path class="enery-icon" fill="#82C7BA" d="M177.3,74.9c1.8-1.9,3.5-3.9,5.1-5.8c11.4-14,14.9-26.6,9.8-35.6c-2.8-4.9-9.4-10.8-24.9-10.8
		c-5.7,0-12,0.8-18.8,2.3c-6.3-20.9-16.8-34-29-34C107.4-9,97,3.9,90.7,24.5c-6.9-1.6-13.3-2.5-19.1-2.5c-15,0-21.5,5.7-24.3,10.5
		C41.2,43,47.1,58.4,61.6,74.1C46.9,89.7,40.8,105,46.8,115.6c2.8,4.9,9.4,10.8,24.9,10.8c5.7,0,12-0.8,18.8-2.3
		c6.3,20.9,16.7,34,29,34c12.1,0,22.5-12.9,28.8-33.5c6.9,1.6,13.3,2.5,19.1,2.5c15,0,21.5-5.7,24.3-10.5c5.2-8.9,1.9-21.6-9.4-35.7
		C180.7,78.8,179.1,76.8,177.3,74.9z M71.7,116.9c-8.6,0-14.5-2.1-16.6-6c-3.5-6.1,1.4-17.5,13.3-30c4.9,4.6,10.4,9.1,16.6,13.5
		c0.7,7.3,1.8,14.2,3.2,20.5C82.2,116.2,76.6,116.9,71.7,116.9z M84.1,81.9c-3.2-2.6-6.2-5.2-9-7.7c2.7-2.5,5.8-5,9-7.5
		C84,69.3,84,71.9,84,74.5C84,77,84,79.5,84.1,81.9z M84.9,54.3c-6.1,4.3-11.7,8.7-16.5,13.2C56.7,54.8,52,43.4,55.5,37.3
		c2.2-3.7,7.9-5.8,16.1-5.8c5,0,10.6,0.7,16.6,2.1C86.8,40,85.7,46.9,84.9,54.3z M143.7,47.6c-2.1-1.3-4.2-2.6-6.4-3.9
		c-2.1-1.2-4.3-2.4-6.4-3.5c3.6-1.4,7.2-2.6,10.7-3.7C142.5,40,143.2,43.7,143.7,47.6z M119.5,0.4c7.1,0,14.7,10.1,19.8,27
		c-6.3,1.9-12.9,4.3-19.5,7.3C113,31.6,106.3,29,99.8,27C104.9,10.4,112.4,0.4,119.5,0.4z M97.4,36.1c3.6,1.1,7.3,2.5,11.1,4
		c-2.2,1.1-4.3,2.3-6.4,3.5c-2.3,1.3-4.5,2.6-6.7,4C95.9,43.5,96.6,39.7,97.4,36.1z M95.3,101.4c2.1,1.3,4.2,2.6,6.4,3.9
		c2.1,1.2,4.3,2.4,6.4,3.5c-3.6,1.4-7.2,2.6-10.7,3.7C96.5,109,95.8,105.3,95.3,101.4z M119.5,148.6c-7.1,0-14.7-10.1-19.8-27
		c6.3-1.9,12.9-4.3,19.6-7.3c6.8,3.1,13.5,5.6,19.9,7.7C134,138.6,126.5,148.6,119.5,148.6z M141.6,112.9c-3.6-1.1-7.3-2.5-11.1-4
		c2.2-1.1,4.3-2.3,6.4-3.5c2.3-1.3,4.5-2.6,6.7-4C143.1,105.5,142.4,109.3,141.6,112.9z M145,89.4c-4,2.7-8.3,5.3-12.7,7.8
		c-4.3,2.4-8.7,4.7-13,6.7c-4.3-2.1-8.6-4.4-12.9-6.9c-4.4-2.6-8.5-5.2-12.4-7.8c-0.3-4.7-0.5-9.6-0.5-14.7c0-5.2,0.2-10.1,0.6-14.9
		c4-2.7,8.2-5.3,12.7-7.8c4.3-2.4,8.7-4.7,13-6.7c4.3,2.1,8.6,4.4,12.9,6.9c4.3,2.5,8.5,5.1,12.4,7.9c0.3,4.7,0.5,9.6,0.5,14.7
		C145.6,79.7,145.4,84.6,145,89.4z M167.3,32.1c8.6,0,14.5,2.1,16.6,6c2.9,5.2-0.4,14.5-8.9,25c-1.4,1.7-2.9,3.4-4.5,5.1
		c-4.9-4.6-10.5-9.2-16.5-13.5c-0.7-7.3-1.8-14.2-3.2-20.5C156.8,32.8,162.4,32.1,167.3,32.1z M154.9,67.1c3.2,2.5,6.2,5.1,9,7.7
		c-2.8,2.5-5.8,5-9,7.5c0.1-2.6,0.1-5.1,0.1-7.8C155,72,155,69.5,154.9,67.1z M183.5,111.7c-2.2,3.7-7.9,5.8-16.1,5.8
		c-5,0-10.6-0.7-16.6-2.1c1.5-6.4,2.6-13.3,3.3-20.7c6-4.2,11.5-8.7,16.5-13.1c1.6,1.7,3,3.4,4.4,5.1
		C183.3,97.2,186.5,106.6,183.5,111.7z"/> <path class="st0" fill="#82C7BA" d="M119.5,62.8c-6.5,0-11.7,5.2-11.7,11.7s5.2,11.7,11.7,11.7c6.5,0,11.7-5.2,11.7-11.7S126,62.8,119.5,62.8z"/> </g> </symbol><symbol viewBox="0 0 405 405" id="facebook-icon"><title>facebook-icon</title> <path fill="#3D5A98" class="footer-social-icons" d="M303.5,88.9H101.5c-6.9,0-12.5,5.6-12.5,12.5v202.1c0,6.9,5.6,12.5,12.5,12.5h108.8v-88h-29.6v-34.3h29.6
	v-25.3c0-29.3,17.9-45.3,44.1-45.3c12.5,0,23.3,0.9,26.4,1.4v30.7l-18.2,0c-14.2,0-17,6.8-17,16.7v21.9h33.9l-4.4,34.3h-29.5v88
	h57.9c6.9,0,12.5-5.6,12.5-12.5V101.5C316,94.5,310.4,88.9,303.5,88.9z"/> </symbol><symbol viewBox="0 0 140 140" id="hot-icon"><title>hot-icon</title> <path fill="#82C7BA" d="M65.8,123.4c-12-15.7-14.4-33.3-6.4-48.3c1.8-3.7,4.5-6,6.9-8.2c2.1-1.9,3.9-3.5,5.1-5.8l0-0.1
	c8.9-16.6,0.3-32-5.6-39.7l6.3-4.9c12,15.7,14.4,33.3,6.4,48.3c-1.8,3.7-4.5,6-6.9,8.2c-2.1,1.9-3.9,3.5-5.1,5.8l0,0.1
	c-8.9,16.6-0.3,32,5.6,39.7L65.8,123.4z"/> <path fill="#82C7BA" d="M35.2,123.8c-12.4-12.4-15.1-31.9-6.7-48.6c1.5-2.9,3.6-4.9,5.7-6.8c1.4-1.2,2.6-2.4,3.7-3.8
	c9.1-12.4,7.9-29.3-2.9-43.1l6.3-4.9C54.3,33.3,55.5,54,44.2,69.4c-1.5,2.1-3.2,3.6-4.7,5c-1.7,1.5-3.1,2.8-3.9,4.4
	c-5.7,11.3-6.2,27.9,5.3,39.4L35.2,123.8z"/> <path fill="#82C7BA" d="M98.2,123.8c-12.4-12.4-15.1-31.9-6.8-48.6c1.5-2.9,3.6-4.9,5.7-6.8c1.4-1.2,2.6-2.4,3.7-3.8
	c9.1-12.4,7.9-29.3-2.9-43.1l6.3-4.9c13.1,16.7,14.4,37.5,3.1,52.8c-1.5,2.1-3.2,3.6-4.7,5c-1.7,1.5-3.1,2.8-3.9,4.4
	c-5.7,11.3-6.2,27.9,5.2,39.4L98.2,123.8z"/> </symbol><symbol viewBox="0 0 405 405" id="instagram-icon"><title>instagram-icon</title> <path fill-rule="evenodd" clip-rule="evenodd" fill="#DEE8F0" class="footer-social-icons" d="M117.4,89.2H286c16,0,29.1,13.1,29.1,29.1v168.6
	c0,16-13.1,29.1-29.1,29.1H117.4c-16,0-29.1-13.1-29.1-29.1V118.3C88.2,102.3,101.3,89.2,117.4,89.2L117.4,89.2z M253.5,114.4
	c-5.6,0-10.2,4.6-10.2,10.2v24.4c0,5.6,4.6,10.2,10.2,10.2h25.6c5.6,0,10.2-4.6,10.2-10.2v-24.4c0-5.6-4.6-10.2-10.2-10.2H253.5
	L253.5,114.4z M289.5,185.1h-20c1.9,6.2,2.9,12.7,2.9,19.5c0,37.7-31.6,68.3-70.5,68.3c-38.9,0-70.5-30.6-70.5-68.3
	c0-6.8,1-13.3,2.9-19.5h-20.8V281c0,5,4.1,9,9,9h158c5,0,9-4.1,9-9V185.1L289.5,185.1z M201.9,158c-25.2,0-45.6,19.8-45.6,44.1
	c0,24.4,20.4,44.1,45.6,44.1c25.2,0,45.6-19.8,45.6-44.1C247.5,177.7,227.1,158,201.9,158z"/> </symbol><symbol viewBox="0 0 405 405" id="pinterest-icon"><title>pinterest-icon</title> <g> <path fill="#BD081C" class="footer-social-icons" d="M203.6,89.9c-62.3,0-112.9,50.5-112.9,112.9c0,47.8,29.8,88.7,71.7,105.1c-1-8.9-1.9-22.6,0.4-32.4
		c2-8.8,13.2-56.1,13.2-56.1s-3.4-6.8-3.4-16.8c0-15.7,9.1-27.4,20.4-27.4c9.6,0,14.3,7.2,14.3,15.9c0,9.7-6.2,24.2-9.3,37.6
		c-2.7,11.2,5.6,20.4,16.7,20.4c20.1,0,35.5-21.2,35.5-51.7c0-27-19.4-45.9-47.2-45.9c-32.1,0-51,24.1-51,49
		c0,9.7,3.7,20.1,8.4,25.8c0.9,1.1,1.1,2.1,0.8,3.2c-0.9,3.6-2.8,11.2-3.1,12.8c-0.5,2.1-1.6,2.5-3.8,1.5
		c-14.1-6.6-22.9-27.2-22.9-43.7c0-35.6,25.9-68.3,74.6-68.3c39.2,0,69.6,27.9,69.6,65.2c0,38.9-24.5,70.2-58.6,70.2
		c-11.4,0-22.2-5.9-25.9-13c0,0-5.7,21.6-7,26.8c-2.6,9.8-9.4,22.1-14,29.6c10.6,3.3,21.8,5,33.4,5c62.3,0,112.9-50.5,112.9-112.9
		C316.5,140.4,265.9,89.9,203.6,89.9z"/> </g> </symbol><symbol viewBox="30 -15 180 180" id="pure-water-icon"><title>pure-water-icon</title> <path fill="none" class="pure-water-icon" stroke="#82C7BA" stroke-width="7" stroke-miterlimit="10" d="M116.4,1.3c-3,12.8-7.9,24.5-13.7,35.8
	c-4.2,8.2-8.4,16.5-11.9,25.2c-2.9,7.1-3.9,14.6-2.6,22.3c2.4,14,12.7,25,24.7,26.6c12.7,1.7,24.6-5.7,30-18.9
	c4.2-10.3,3.6-20.6-0.6-30.7c-3.8-9-8.2-17.7-12.5-26.3c-4.1-8.1-7.8-16.3-10.4-25.2c-0.9-3-1.7-6.1-2.7-9.4
	C116.5,1.1,116.4,1.2,116.4,1.3z M152,117c-5.1,3.1-10.2,7.3-14,12c-1,1.1-1.8,2.4-2.6,3.6c-0.8,1.2-1.6,2.2-2.2,3.4
	c-1.2,2.3-2.4,4.3-3,6.2c-1.4,3.7-2.1,5.9-2.1,5.9s1.9-1.5,4.7-3.9c1.4-1.2,3.4-2.2,5.2-3.5c0.9-0.7,2.1-1.1,3.2-1.7
	c1.1-0.5,2.2-1.1,3.3-1.6c4.6-1.9,9.6-3,13.8-3.6c4.3-0.4,7.9-0.7,10.2-1c4.4-0.7,8.3-2.1,11.5-3.9c3.1-1.8,5.4-4.1,5.9-7
	c0.5-2.9-1.5-5.9-5.3-8c-3.8-2.1-9.5-3.1-15.6-2.1C161.9,112.2,157.1,114.1,152,117z M77,142c3.9-0.3,8.3-0.3,12.6,0.3
	c4.3,0.4,8.1,1.9,11.1,3.2c1.4,0.7,2.5,1.4,3.3,1.9c0.8,0.5,1.3,0.8,1.3,0.8s-0.2-0.5-0.6-1.3c-0.4-0.9-0.9-2.2-1.7-3.7
	c-1.7-2.9-4.6-7.1-8.8-10.4c-8.1-7.1-19.8-11.3-24.8-11.6c-10.3-0.7-18.2,5.1-17.4,10.9c0.9,5.8,7.8,9.8,15.8,10.4
	C69.8,142.5,73.1,142.2,77,142z M74.8,107.5c2.4,0.4,4.6,1.1,6.3,1.7c1.6,0.7,2.7,1.2,2.7,1.2s-0.1-0.3-0.4-0.7
	c-0.3-0.4-0.6-1.2-1.1-1.9c-1-1.5-2.6-3.7-4.7-5.6c-4.1-4-9.7-7.1-12.4-7.7c-5.4-1.3-10.1,1-10.3,4.3c-0.2,3.3,3.2,6.3,7.6,7.3
	C64.7,106.7,70,106.6,74.8,107.5z"/> </symbol><symbol viewBox="30 -15 180 180" id="safety-icon"><title>safety-icon</title> <g> <path fill="#82c7ba" d="M136.8,91.1c0-9.5-7.8-17.3-17.3-17.3s-17.3,7.8-17.3,17.3c0,4.8,2,9.4,5.5,12.6l-4,15.7h31.1l-4.5-14.9
		C134.4,101.3,136.8,96.4,136.8,91.1z M125.3,100.8l-2,1.2l3.4,11.4h-15.3l3.1-12l-1.6-1.2c-3-2.2-4.6-5.5-4.6-9.1
		c0-6.2,5.1-11.3,11.3-11.3s11.3,5.1,11.3,11.3C130.8,95.1,128.8,98.7,125.3,100.8z"/> <path fill="#82c7ba" d="M153.2,49.1V32.1c0-14.6-11.9-26.5-26.5-26.5h-12.8c-14.6,0-26.5,11.9-26.5,26.5v17h-0.8
		c-8.5,0-15.5,7-15.5,15.5v79.5h97V64.6C168,56.3,161.4,49.5,153.2,49.1z M94.3,32.1c0-10.8,8.7-19.5,19.5-19.5h12.8
		c10.8,0,19.5,8.7,19.5,19.5v17H94.3V32.1z M161,137.1H78V64.6c0-4.7,3.8-8.5,8.5-8.5h0.8v0h65.4c4.6,0.1,8.3,3.9,8.3,8.5V137.1z"/> </g> </symbol><symbol viewBox="30 -15 180 180" id="timer-icon"><title>timer-icon</title> <g> <path fill="#82C7BA" d="M129.8,91.5c4-4,4-10.5,0-14.5c-4-4-42.6-27.9-42.6-27.9s24.1,38.4,28.1,42.4
		C119.3,95.5,125.7,95.5,129.8,91.5z"/> <path fill="#82C7BA" d="M118.4,8.4h-3.6v23.7h7.2V15.7c31.7,1.9,56.9,28.2,56.9,60.3c0,33.3-27.1,60.4-60.4,60.4S58,109.3,58,76
		c0-15.5,5.9-30.3,16.6-41.6l-5.2-4.9C57.4,42.1,50.8,58.7,50.8,76c0,37.3,30.3,67.6,67.6,67.6S186,113.3,186,76
		C186,38.7,155.7,8.4,118.4,8.4z"/> </g> </symbol><symbol viewBox="30 -15 180 180" id="touch-screen-icon"><title>touch-screen-icon</title> <g> <path class="touch-screen-icon" fill="#82C7BA" d="M86.4,34.8c1.8-1.2,2.6-3.5,1.4-5.3c-1.8-2.9-2.6-6.1-2.6-9.4c0-10.2,8.4-18.7,18.7-18.7s18.7,8.4,18.7,18.7
		c0,3.3-1,6.7-2.6,9.4c-1.2,1.8-0.6,4.3,1.4,5.3c0.6,0.4,1.4,0.6,2,0.6c1.4,0,2.6-0.6,3.3-2c2.4-4.1,3.7-8.8,3.7-13.5
		c0-14.5-12-26.5-26.5-26.5s-26.5,12-26.5,26.5c0,4.7,1.4,9.4,3.7,13.5C82.1,35.4,84.4,36,86.4,34.8z"/> <path class="st0" fill="#82C7BA" d="M154.7,57.4c-1.6,0-2.9,0.2-4.5,0.8c-0.6-2.6-1.6-4.9-2.9-6.7c-2.2-2.6-5.1-3.9-8.4-3.9c-2.2,0-4.3,0.6-6.3,2
		c-0.6-1-1.4-2-2-2.6c-2.4-2.4-5.5-3.7-8.8-3.7c-1.8,0-3.5,0.4-5.3,1.2V20.9c0-5.3-2.2-8.6-3.9-10.4c-2.4-2.4-5.5-3.7-8.8-3.7
		c-6.3,0-13.2,4.9-13.2,14.1v33.8c-6.9,2.4-16.1,8.4-16.1,20.2v24V99c0,0.2,0,0.2,0,0.4s0,0.2,0,0.4c0,0.2,0,0.2,0.2,0.4
		c0,0.2,0.2,0.2,0.2,0.4s0.2,0.2,0.2,0.4s0.2,0.2,0.2,0.4c0,0,0,0.2,0.2,0.2l15.3,16.9v30.6c0,2.2,1.8,3.9,3.9,3.9h60.7
		c2.2,0,3.9-1.8,3.9-3.9v-31l6.9-14.9c0.2-0.6,0.4-1,0.4-1.6V70.2C166.7,61.7,160.6,57.4,154.7,57.4z M98.9,126.7v-10.2
		c0-1-0.4-2-1-2.6L82.6,97V74.7c0-6.5,4.5-9.8,8.2-11.6v22.8c0,2.2,1.8,3.9,3.9,3.9s3.9-1.8,3.9-3.9V57.6l0,0V21.1
		c0-6.3,5.9-7.5,8.4-4.9c1,1.2,1.6,2.7,1.6,4.9v46.1c0,2.2,1.8,3.9,3.9,3.9s3.9-1.8,3.9-3.9v-9.6l0,0c0-6.5,5.9-7.5,8.4-4.9
		c1,1.2,1.6,2.7,1.6,4.9v10.6c0,2.2,1.8,3.9,3.9,3.9c2.2,0,3.9-1.8,3.9-3.9v-6.1c0-4.3,2.2-6.3,4.3-6.3c0.6,0,1.6,0.2,2.4,1.2
		c1,1.2,1.4,2.9,1.4,5.1v8.2c0,2.2,1.8,3.9,3.9,3.9s3.9-1.8,3.9-3.9l0,0c0-3.7,2.2-4.9,4.1-4.9c2,0,4.1,1.4,4.1,4.9l0.2,30.2l0,0
		l-6.9,14.9c-0.2,0.6-0.4,1-0.4,1.6v27.7H98.9v-10.2"/> </g> </symbol><symbol viewBox="0 0 405 405" id="twitter-icon"><title>twitter-icon</title> <path fill="#55ACEE" class="footer-social-icons" d="M340.7,115.2c-10.1,4.5-20.9,7.5-32.2,8.8c11.6-6.9,20.5-17.9,24.7-31c-10.8,6.4-22.8,11.1-35.6,13.6
	c-10.2-10.9-24.8-17.7-40.9-17.7c-31,0-56.1,25.1-56.1,56.1c0,4.4,0.5,8.7,1.5,12.8c-46.6-2.3-87.9-24.7-115.6-58.6
	c-4.8,8.3-7.6,17.9-7.6,28.2c0,19.5,9.9,36.6,25,46.7c-9.2-0.3-17.8-2.8-25.4-7c0,0.2,0,0.5,0,0.7c0,27.2,19.3,49.8,45,55
	c-4.7,1.3-9.7,2-14.8,2c-3.6,0-7.1-0.4-10.6-1c7.1,22.3,27.9,38.5,52.4,39c-19.2,15-43.4,24-69.7,24c-4.5,0-9-0.3-13.4-0.8
	c24.8,15.9,54.3,25.2,86,25.2c103.2,0,159.6-85.5,159.6-159.6c0-2.4-0.1-4.9-0.2-7.3C323.7,136.4,333.2,126.5,340.7,115.2z"/> </symbol><symbol viewBox="30 -15 180 180" id="variable-temp-icon"><title>variable-temp-icon</title> <path fill="#82C7BA" d="M145,53.7c3.6,0,6.5-2.9,6.5-6.5s-2.9-6.5-6.5-6.5h-23V25.9h36.4c3.6,0,6.5-2.9,6.5-6.5c0-3.6-2.9-6.5-6.5-6.5
	H122V-2.1c0-3.1-3.1-6.9-7-6.9h-1.3c-3.9,0-7,3.8-7,6.9v113.5c-8.5,3.3-14.5,11.4-14.5,21c-0.2,12.6,10,22.7,22.5,22.7
	s22.7-10.1,22.7-22.7c0-10-6.5-18.4-15.3-21.4v-28h9.5c3.6,0,6.5-2.9,6.5-6.5c0-3.6-2.9-6.5-6.5-6.5H122V53.7H145z"/> <path d="M93.8,101.5L93.8,101.5L93.8,101.5z"/> <path d="M93.4,101.5L93.4,101.5C92.8,101.5,93.2,101.5,93.4,101.5z"/> <path d="M93.4,101.5L93.4,101.5c0.1,0,0.2,0,0.4,0C93.8,101.5,93.7,101.5,93.4,101.5z"/> </symbol><symbol viewBox="-19 21 100 100" id="water-tank-icon"><title>water-tank-icon</title> <path fill="none" stroke="#82C7BA" stroke-width="3" stroke-miterlimit="10" d="M25.3,37.9c0.8,2,1.6,6.4-4.9,8.4
	c-8.6,2.7-15.4,7.5-15.4,16.8v35.7c0,7.3,5.9,13.2,13.2,13.2h15h-6.5h15c7.3,0,13.2-5.9,13.2-13.2V63.1c0-9.3-6.8-14.1-15.4-16.8
	c-6.5-2-5.7-6.4-4.9-8.5"/> <path fill="none" stroke="#82C7BA" stroke-width="3" stroke-miterlimit="10" d="M21.1,35.6L21.1,35.6c0-1.7,1.4-3,3-3h12.2
	c1.7,0,3,1.4,3,3v0c0,1.7-1.4,3-3,3H24.1C22.4,38.7,21.1,37.3,21.1,35.6z"/> <path fill="none" stroke="#82C7BA" stroke-width="3" stroke-linecap="round" stroke-miterlimit="10" d="M30.2,95.1
	c7.5,0,16-0.6,24.6-2.6"/> <path fill="none" stroke="#82C7BA" stroke-width="3" stroke-linecap="round" stroke-miterlimit="10" d="M4.9,92.5
	c0,0,4.8,1.1,12.3,1.9"/> <path fill="none" stroke="#82C7BA" stroke-width="3" stroke-linecap="round" stroke-miterlimit="10" d="M37.5,81
	c5.5-0.3,11.4-1,17.3-2.4"/> <path fill="none" stroke="#82C7BA" stroke-width="3" stroke-linecap="round" stroke-miterlimit="10" d="M4.9,78.6
	c0,0,4.8,1.1,12.3,1.9"/> <path fill="none" stroke="#82C7BA" stroke-width="3" stroke-linecap="round" stroke-miterlimit="10" d="M42.5,66.7
	c4-0.4,8.2-1.1,12.3-2"/> <path fill="none" stroke="#82C7BA" stroke-width="3" stroke-linecap="round" stroke-miterlimit="10" d="M4.9,64.7
	c0,0,8,1.9,19.6,2.4"/> </symbol></svg>